#Comment line ignore any data following # character 
#Hierarchical Translation and Rotation (.htr) file 
[Header]	
#Header keywords are followed by a single value 
FileType HTR		#Single word string
DataType HTRS		#Translation followed by rotation and scale data
FileVersion 1		#integer
NumSegments 84		#integer
NumFrames 2		#integer
DataFrameRate 30		#integer, data frame rate in this file
EulerRotationOrder ZYX
CalibrationUnits mm
RotationUnits Degrees
GlobalAxisofGravity Y
BoneLengthAxis Y
ScaleFactor 1.00
[SegmentNames&Hierarchy]
#CHILD	PARENT
MASTER GLOBAL
root MASTER
chest root
L_mid_tent01 root
R_mid_tent01 root
spine01 root
Bip01_Neck chest
L_humerus chest
R_humerus chest
weapon_bone chest
Bip01_Head Bip01_Neck
eye_left_bone Bip01_Head
eye_right_bone Bip01_Head
L_forearm L_humerus
L_front_hand L_forearm
L_weapon_bone L_forearm
L_front_hand01_01 L_front_hand
L_front_hand02_01 L_front_hand
L_front_hand03_01 L_front_hand
L_front_hand01_02 L_front_hand01_01
L_front_hand02_02 L_front_hand02_01
L_front_hand03_02 L_front_hand03_01
R_forearm R_humerus
R_front_hand R_forearm
R_weapon_bone R_forearm
R_front_hand01_01 R_front_hand
R_front_hand02_01 R_front_hand
R_front_hand03_01 R_front_hand
R_front_hand01_02 R_front_hand01_01
R_front_hand02_02 R_front_hand02_01
R_front_hand03_02 R_front_hand03_01
null_rope01_connect L_mid_tent01
Rope1_Seg01 null_rope01_connect
Rope1_Seg02 Rope1_Seg01
Rope1_Seg03 Rope1_Seg02
Rope1_Seg04 Rope1_Seg03
Rope1_Seg05 Rope1_Seg04
Rope1_Seg06 Rope1_Seg05
Rope1_Seg07 Rope1_Seg06
Rope1_Seg09 Rope1_Seg07
L_mid_hand01 Rope1_Seg09
L_mid_hand02 Rope1_Seg09
L_mid_hand03 Rope1_Seg09
null_rope02_connect R_mid_tent01
Rope2_Seg01 null_rope02_connect
Rope2_Seg02 Rope2_Seg01
Rope2_Seg03 Rope2_Seg02
Rope2_Seg04 Rope2_Seg03
Rope2_Seg05 Rope2_Seg04
Rope2_Seg06 Rope2_Seg05
Rope2_Seg07 Rope2_Seg06
Rope2_Seg09 Rope2_Seg07
R_mid_hand01 Rope2_Seg09
R_mid_hand02 Rope2_Seg09
R_mid_hand03 Rope2_Seg09
spine02 spine01
spine03 spine02
pelvis spine03
null_rope03_connect pelvis
null_rope04_connect pelvis
Rope3_Seg01 null_rope03_connect
Rope3_Seg02 Rope3_Seg01
Rope3_Seg03 Rope3_Seg02
Rope3_Seg04 Rope3_Seg03
Rope3_Seg05 Rope3_Seg04
Rope3_Seg06 Rope3_Seg05
Rope3_Seg07 Rope3_Seg06
Rope3_Seg08 Rope3_Seg07
Rope3_Seg09 Rope3_Seg08
R_rear_hand01 Rope3_Seg09
R_rear_hand02 Rope3_Seg09
R_rear_hand03 Rope3_Seg09
Rope4_Seg01 null_rope04_connect
Rope4_Seg02 Rope4_Seg01
Rope4_Seg03 Rope4_Seg02
Rope4_Seg04 Rope4_Seg03
Rope4_Seg05 Rope4_Seg04
Rope4_Seg06 Rope4_Seg05
Rope4_Seg07 Rope4_Seg06
Rope4_Seg08 Rope4_Seg07
Rope4_Seg09 Rope4_Seg08
L_rear_hand01 Rope4_Seg09
L_rear_hand02 Rope4_Seg09
L_rear_hand03 Rope4_Seg09
[BasePosition]
#SegmentName Tx, Ty, Tz, Rx, Ry, Rz, BoneLength
MASTER 0.000000 0.000000 0.000000 -90.000000 0.000000 0.000000 10.000000 
root 0.000000 0.000000 0.000000 0.000000 0.000000 0.000000 10.000000 
chest 0.000000 0.000000 0.000000 0.000000 0.000000 0.000000 10.000000 
L_mid_tent01 0.000000 0.000000 0.000000 0.000000 0.000000 0.000000 10.000000 
R_mid_tent01 0.000000 0.000000 0.000000 0.000000 0.000000 0.000000 10.000000 
spine01 0.000000 0.000000 0.000000 0.000000 0.000000 0.000000 10.000000 
Bip01_Neck 0.000000 0.000000 0.000000 0.000000 0.000000 0.000000 10.000000 
L_humerus 0.000000 0.000000 0.000000 0.000000 0.000000 0.000000 10.000000 
R_humerus 0.000000 0.000000 0.000000 0.000000 0.000000 0.000000 10.000000 
weapon_bone 0.000000 0.000000 0.000000 0.000000 0.000000 0.000000 10.000000 
Bip01_Head 0.000000 0.000000 0.000000 0.000000 0.000000 0.000000 10.000000 
eye_left_bone 0.000000 0.000000 0.000000 0.000000 0.000000 0.000000 10.000000 
eye_right_bone 0.000000 0.000000 0.000000 0.000000 0.000000 0.000000 10.000000 
L_forearm 0.000000 0.000000 0.000000 0.000000 0.000000 0.000000 10.000000 
L_front_hand 0.000000 0.000000 0.000000 0.000000 0.000000 0.000000 10.000000 
L_weapon_bone 0.000000 0.000000 0.000000 0.000000 0.000000 0.000000 10.000000 
L_front_hand01_01 0.000000 0.000000 0.000000 0.000000 0.000000 0.000000 10.000000 
L_front_hand02_01 0.000000 0.000000 0.000000 0.000000 0.000000 0.000000 10.000000 
L_front_hand03_01 0.000000 0.000000 0.000000 0.000000 0.000000 0.000000 10.000000 
L_front_hand01_02 0.000000 0.000000 0.000000 0.000000 0.000000 0.000000 10.000000 
L_front_hand02_02 0.000000 0.000000 0.000000 0.000000 0.000000 0.000000 10.000000 
L_front_hand03_02 0.000000 0.000000 0.000000 0.000000 0.000000 0.000000 10.000000 
R_forearm 0.000000 0.000000 0.000000 0.000000 0.000000 0.000000 10.000000 
R_front_hand 0.000000 0.000000 0.000000 0.000000 0.000000 0.000000 10.000000 
R_weapon_bone 0.000000 0.000000 0.000000 0.000000 0.000000 0.000000 10.000000 
R_front_hand01_01 0.000000 0.000000 0.000000 0.000000 0.000000 0.000000 10.000000 
R_front_hand02_01 0.000000 0.000000 0.000000 0.000000 0.000000 0.000000 10.000000 
R_front_hand03_01 0.000000 0.000000 0.000000 0.000000 0.000000 0.000000 10.000000 
R_front_hand01_02 0.000000 0.000000 0.000000 0.000000 0.000000 0.000000 10.000000 
R_front_hand02_02 0.000000 0.000000 0.000000 0.000000 0.000000 0.000000 10.000000 
R_front_hand03_02 0.000000 0.000000 0.000000 0.000000 0.000000 0.000000 10.000000 
null_rope01_connect 0.000000 0.000000 0.000000 0.000000 0.000000 0.000000 10.000000 
Rope1_Seg01 0.000000 0.000000 0.000000 0.000000 0.000000 0.000000 10.000000 
Rope1_Seg02 0.000000 0.000000 0.000000 0.000000 0.000000 0.000000 10.000000 
Rope1_Seg03 0.000000 0.000000 0.000000 0.000000 0.000000 0.000000 10.000000 
Rope1_Seg04 0.000000 0.000000 0.000000 0.000000 0.000000 0.000000 10.000000 
Rope1_Seg05 0.000000 0.000000 0.000000 0.000000 0.000000 0.000000 10.000000 
Rope1_Seg06 0.000000 0.000000 0.000000 0.000000 0.000000 0.000000 10.000000 
Rope1_Seg07 0.000000 0.000000 0.000000 0.000000 0.000000 0.000000 10.000000 
Rope1_Seg09 0.000000 0.000000 0.000000 0.000000 0.000000 0.000000 10.000000 
L_mid_hand01 0.000000 0.000000 0.000000 0.000000 0.000000 0.000000 10.000000 
L_mid_hand02 0.000000 0.000000 0.000000 0.000000 0.000000 0.000000 10.000000 
L_mid_hand03 0.000000 0.000000 0.000000 0.000000 0.000000 0.000000 10.000000 
null_rope02_connect 0.000000 0.000000 0.000000 0.000000 0.000000 0.000000 10.000000 
Rope2_Seg01 0.000000 0.000000 0.000000 0.000000 0.000000 0.000000 10.000000 
Rope2_Seg02 0.000000 0.000000 0.000000 0.000000 0.000000 0.000000 10.000000 
Rope2_Seg03 0.000000 0.000000 0.000000 0.000000 0.000000 0.000000 10.000000 
Rope2_Seg04 0.000000 0.000000 0.000000 0.000000 0.000000 0.000000 10.000000 
Rope2_Seg05 0.000000 0.000000 0.000000 0.000000 0.000000 0.000000 10.000000 
Rope2_Seg06 0.000000 0.000000 0.000000 0.000000 0.000000 0.000000 10.000000 
Rope2_Seg07 0.000000 0.000000 0.000000 0.000000 0.000000 0.000000 10.000000 
Rope2_Seg09 0.000000 0.000000 0.000000 0.000000 0.000000 0.000000 10.000000 
R_mid_hand01 0.000000 0.000000 0.000000 0.000000 0.000000 0.000000 10.000000 
R_mid_hand02 0.000000 0.000000 0.000000 0.000000 0.000000 0.000000 10.000000 
R_mid_hand03 0.000000 0.000000 0.000000 0.000000 0.000000 0.000000 10.000000 
spine02 0.000000 0.000000 0.000000 0.000000 0.000000 0.000000 10.000000 
spine03 0.000000 0.000000 0.000000 0.000000 0.000000 0.000000 10.000000 
pelvis 0.000000 0.000000 0.000000 0.000000 0.000000 0.000000 10.000000 
null_rope03_connect 0.000000 0.000000 0.000000 0.000000 0.000000 0.000000 10.000000 
null_rope04_connect 0.000000 0.000000 0.000000 0.000000 0.000000 0.000000 10.000000 
Rope3_Seg01 0.000000 0.000000 0.000000 0.000000 0.000000 0.000000 10.000000 
Rope3_Seg02 0.000000 0.000000 0.000000 0.000000 0.000000 0.000000 10.000000 
Rope3_Seg03 0.000000 0.000000 0.000000 0.000000 0.000000 0.000000 10.000000 
Rope3_Seg04 0.000000 0.000000 0.000000 0.000000 0.000000 0.000000 10.000000 
Rope3_Seg05 0.000000 0.000000 0.000000 0.000000 0.000000 0.000000 10.000000 
Rope3_Seg06 0.000000 0.000000 0.000000 0.000000 0.000000 0.000000 10.000000 
Rope3_Seg07 0.000000 0.000000 0.000000 0.000000 0.000000 0.000000 10.000000 
Rope3_Seg08 0.000000 0.000000 0.000000 0.000000 0.000000 0.000000 10.000000 
Rope3_Seg09 0.000000 0.000000 0.000000 0.000000 0.000000 0.000000 10.000000 
R_rear_hand01 0.000000 0.000000 0.000000 0.000000 0.000000 0.000000 10.000000 
R_rear_hand02 0.000000 0.000000 0.000000 0.000000 0.000000 0.000000 10.000000 
R_rear_hand03 0.000000 0.000000 0.000000 0.000000 0.000000 0.000000 10.000000 
Rope4_Seg01 0.000000 0.000000 0.000000 0.000000 0.000000 0.000000 10.000000 
Rope4_Seg02 0.000000 0.000000 0.000000 0.000000 0.000000 0.000000 10.000000 
Rope4_Seg03 0.000000 0.000000 0.000000 0.000000 0.000000 0.000000 10.000000 
Rope4_Seg04 0.000000 0.000000 0.000000 0.000000 0.000000 0.000000 10.000000 
Rope4_Seg05 0.000000 0.000000 0.000000 0.000000 0.000000 0.000000 10.000000 
Rope4_Seg06 0.000000 0.000000 0.000000 0.000000 0.000000 0.000000 10.000000 
Rope4_Seg07 0.000000 0.000000 0.000000 0.000000 0.000000 0.000000 10.000000 
Rope4_Seg08 0.000000 0.000000 0.000000 0.000000 0.000000 0.000000 10.000000 
Rope4_Seg09 0.000000 0.000000 0.000000 0.000000 0.000000 0.000000 10.000000 
L_rear_hand01 0.000000 0.000000 0.000000 0.000000 0.000000 0.000000 10.000000 
L_rear_hand02 0.000000 0.000000 0.000000 0.000000 0.000000 0.000000 10.000000 
L_rear_hand03 0.000000 0.000000 0.000000 0.000000 0.000000 0.000000 10.000000 
#Beginning of Data. Separated by tabs
#Fr	Tx	Ty	Tz	Rx	Ry	Rz	SF
[MASTER]
14 0.000546 -5076.100586 -403.258209 0.001660 0.001660 0.001660 5092.092773
15 0.000577 -5368.492676 -390.922699 0.001660 0.001660 0.001660 5382.707031
[root]
14 -37.008892 -54.197693 1502.517334 -98.433418 -42.492130 -88.589813 1503.949951
15 -36.496220 -54.673309 1502.455688 -99.437782 -47.682453 -86.861504 1503.893066
[chest]
14 -84.512650 -34.090519 0.000000 -12.381648 -30.091206 170.583664 91.129311
15 -84.512650 -34.090519 0.000000 -15.332480 -30.340120 172.543076 91.129311
[L_mid_tent01]
14 27.299152 22.179106 -249.918716 3.862630 36.229198 81.347610 252.381699
15 27.299156 22.179106 -249.918716 4.094579 36.266823 81.795616 252.381699
[R_mid_tent01]
14 23.228794 24.509907 226.238495 160.432068 -47.061302 87.899765 228.744751
15 23.228794 24.509907 226.238495 171.314682 -61.217087 78.695007 228.744751
[spine01]
14 -0.361383 -0.195265 0.000000 0.002037 0.001166 30.407234 0.410763
15 -0.361383 -0.195265 0.000000 0.002032 0.001175 29.905270 0.410763
[Bip01_Neck]
14 165.484543 71.581718 0.000119 176.643677 -1.657967 43.431911 180.302734
15 165.484543 71.581718 0.000119 176.643677 -1.657967 43.431911 180.302734
[L_humerus]
14 -13.983130 -135.272980 -120.471481 161.240463 40.411457 -104.993393 181.680161
15 -13.983130 -135.272980 -120.471481 156.237656 49.622486 -119.845161 181.680161
[R_humerus]
14 -13.983309 -135.273102 125.287651 -171.139893 -14.348409 -100.001289 184.909012
15 -13.983309 -135.273102 125.287651 -168.805557 -22.085192 -103.532463 184.909012
[weapon_bone]
14 235.964890 -300.705902 0.000000 0.000000 -89.951546 -128.212341 382.234833
15 235.964890 -300.705902 0.000000 0.000000 -89.951546 -128.212341 382.234833
[Bip01_Head]
14 213.341675 186.000504 8.094938 33.005058 4.582499 -43.850414 283.154358
15 213.326416 186.042099 7.559280 33.220219 6.149209 -43.830612 283.155365
[eye_left_bone]
14 -24.626970 125.451866 -64.772606 0.000000 -90.000000 -99.840431 143.318359
15 -24.626970 125.451866 -64.772606 0.000000 -90.000000 -99.840431 143.318359
[eye_right_bone]
14 -24.626970 125.451866 64.327362 0.000000 -89.965736 80.156380 143.117676
15 -24.626970 125.451866 64.327362 0.000000 -89.965736 80.156380 143.117676
[L_forearm]
14 322.776093 0.000000 -0.000119 0.000078 0.002346 -86.174309 322.776093
15 322.776093 0.000000 -0.000119 0.000160 0.002343 -82.177307 322.776093
[L_front_hand]
14 241.149185 -0.042021 -3.300071 -38.183018 -1.836533 -27.424948 241.171753
15 241.149185 -0.042021 -3.300071 28.008734 -1.837316 -27.423868 241.171753
[L_weapon_bone]
14 156.183838 0.000000 0.000000 0.000014 0.000007 0.000001 156.183838
15 156.183838 0.000000 0.000000 0.000014 0.000007 0.000001 156.183838
[L_front_hand01_01]
14 86.095154 20.947098 -0.655860 -0.274251 -0.532978 65.190636 88.609184
15 86.095154 20.947098 -0.655860 -0.281026 -0.528937 65.755096 88.609184
[L_front_hand02_01]
14 86.935165 -11.437475 24.513514 140.993607 -54.388721 -45.452259 91.046425
15 86.935165 -11.437475 24.513514 141.611877 -54.742985 -46.215736 91.046425
[L_front_hand03_01]
14 86.637497 -14.123976 -20.424902 -141.389969 52.619431 -47.524090 90.126129
15 86.637497 -14.123976 -20.424902 -141.973587 52.970398 -48.259953 90.126129
[L_front_hand01_02]
14 71.020905 -0.000179 0.000030 0.001347 0.001922 -19.950998 71.020905
15 71.020905 -0.000179 0.000030 0.001212 0.002010 -27.808073 71.020905
[L_front_hand02_02]
14 71.020927 -0.000119 0.000060 0.001347 0.001922 -19.950998 71.020927
15 71.020927 -0.000119 0.000060 0.001212 0.002010 -27.808073 71.020927
[L_front_hand03_02]
14 71.020905 -0.000060 0.000060 0.001347 0.001922 -19.950998 71.020905
15 71.020905 -0.000060 0.000060 0.001212 0.002010 -27.808073 71.020905
[R_forearm]
14 322.776428 -0.000060 0.000030 0.213095 -0.012854 -87.468056 322.776428
15 322.776428 -0.000060 0.000030 0.212413 -0.024859 -84.767242 322.776428
[R_front_hand]
14 238.847015 -0.006795 2.210259 -170.429123 -10.643229 -26.315607 238.857239
15 238.847015 -0.006795 2.210259 121.281090 -10.645288 -26.314615 238.857239
[R_weapon_bone]
14 155.664093 0.002503 -0.000030 0.003487 0.001180 -90.988930 155.664078
15 155.664093 0.002503 -0.000030 0.003487 0.001180 -90.988930 155.664078
[R_front_hand01_01]
14 87.624611 14.231146 22.918642 -140.500641 -54.097115 44.955368 91.683487
15 87.624611 14.231146 22.918642 -138.456909 -52.798630 42.405624 91.683487
[R_front_hand02_01]
14 89.356956 14.367283 -19.491137 141.255966 52.517586 47.591042 92.579636
15 89.356956 14.367283 -19.491137 139.300415 51.240414 45.105934 92.579636
[R_front_hand03_01]
14 87.286232 -22.307278 -0.143439 0.080269 -0.445286 -64.968216 90.091743
15 87.286232 -22.307278 -0.143439 0.064051 -0.451784 -62.968163 90.091743
[R_front_hand01_02]
14 71.020905 0.000060 0.000119 0.001922 0.001347 19.949347 71.020905
15 71.020905 0.000060 0.000119 0.002010 0.001212 27.806408 71.020905
[R_front_hand02_02]
14 71.020844 -0.000030 -0.000119 0.001922 0.001347 19.949347 71.020836
15 71.020844 -0.000030 -0.000119 0.002010 0.001212 27.806408 71.020836
[R_front_hand03_02]
14 71.020905 0.000000 0.000030 0.001922 0.001347 19.949347 71.020905
15 71.020905 0.000000 0.000030 0.002010 0.001212 27.806408 71.020905
[null_rope01_connect]
14 328.732483 0.000000 -0.000238 -125.568863 -46.562508 179.046875 328.732483
15 328.732483 0.000000 -0.000238 -121.445969 -47.070610 -179.838684 328.732483
[Rope1_Seg01]
14 -0.000018 -0.000020 0.000153 102.950630 -5.722005 -167.362076 0.000155
15 -0.000019 -0.000019 0.000153 102.379997 -6.276939 -166.854782 0.000155
[Rope1_Seg02]
14 139.999863 -0.000179 0.000000 15.374391 -13.490349 -14.409449 139.999863
15 139.999863 -0.000179 0.000000 16.750458 -13.009081 -16.291695 139.999863
[Rope1_Seg03]
14 139.999924 0.000060 -0.000060 23.494360 -25.302952 -20.957966 139.999924
15 139.999924 0.000060 -0.000060 22.332607 -21.238588 -19.541285 139.999924
[Rope1_Seg04]
14 139.999924 -0.000060 -0.000119 9.134213 -27.212742 -6.062528 139.999924
15 139.999924 -0.000060 -0.000119 10.229397 -22.912441 -6.084325 139.999924
[Rope1_Seg05]
14 139.999832 0.000119 -0.000060 -3.011142 -28.945320 8.720363 139.999832
15 139.999832 0.000119 -0.000060 -0.051427 -26.538681 7.081380 139.999832
[Rope1_Seg06]
14 139.999954 0.000119 -0.000060 -4.337270 -15.507619 3.619748 139.999954
15 139.999954 0.000119 -0.000060 -2.476995 -15.365489 3.825550 139.999954
[Rope1_Seg07]
14 139.999985 0.000060 0.000000 -3.061963 -7.410176 0.923836 139.999985
15 139.999985 0.000060 0.000000 -2.059397 -7.776015 1.366266 139.999985
[Rope1_Seg09]
14 121.602913 0.000119 -0.000089 -89.793175 -1.359789 0.847147 121.602913
15 121.602913 0.000119 -0.000089 -89.793175 -1.359789 0.847147 121.602913
[L_mid_hand01]
14 103.859421 1.038730 8.195221 115.405037 -54.702587 -21.718954 104.187431
15 103.859421 1.038730 8.195221 118.511887 -58.710995 -25.432131 104.187431
[L_mid_hand02]
14 105.572853 -4.139662 -10.864139 -156.173569 38.796780 -54.226383 106.211075
15 105.572853 -4.139662 -10.864139 -159.626389 40.490177 -59.638344 106.211075
[L_mid_hand03]
14 104.641464 17.579376 -3.913581 -10.557021 15.605448 59.191418 106.179977
15 104.641464 17.579376 -3.913581 -9.285485 16.381811 63.801453 106.179977
[null_rope02_connect]
14 328.732849 0.000179 -0.000119 -105.101959 45.881702 23.662573 328.732849
15 328.732849 0.000179 -0.000119 -108.095528 34.175255 10.230893 328.732849
[Rope2_Seg01]
14 0.000095 0.000345 0.000000 -87.425674 38.820747 -5.906003 0.000358
15 0.000095 0.000362 0.000000 -88.869331 30.536751 -18.871332 0.000375
[Rope2_Seg02]
14 139.999741 -0.000060 -0.000119 -17.177761 -26.660931 33.370327 139.999756
15 139.999741 -0.000060 -0.000119 -14.647541 -9.371035 15.655040 139.999756
[Rope2_Seg03]
14 140.000107 0.000030 0.000000 -7.620904 -31.100523 36.900902 140.000107
15 140.000107 0.000030 0.000000 -21.346670 -29.468172 43.171688 140.000107
[Rope2_Seg04]
14 139.999802 0.000000 -0.000060 -4.003913 -11.949182 -0.220924 139.999802
15 139.999802 0.000000 -0.000060 -3.354492 -27.455507 20.118876 139.999802
[Rope2_Seg05]
14 139.999985 -0.000060 0.000119 -12.044269 -8.454960 -11.299917 139.999985
15 139.999985 -0.000060 0.000119 -9.267035 -13.854172 -8.904055 139.999985
[Rope2_Seg06]
14 139.999893 -0.000030 -0.000119 -6.562827 -4.779571 -5.348898 139.999893
15 139.999893 -0.000030 -0.000119 -7.166147 -7.919870 -5.360485 139.999893
[Rope2_Seg07]
14 139.999893 0.000060 -0.000060 -4.615563 -2.798781 -3.738262 139.999893
15 139.999893 0.000060 -0.000060 -4.521879 -4.464681 -2.868607 139.999893
[Rope2_Seg09]
14 121.338966 0.000089 -0.000060 33.793236 -1.359788 -0.847141 121.338966
15 121.338966 0.000089 -0.000060 33.793236 -1.359788 -0.847141 121.338966
[R_mid_hand01]
14 104.680779 11.144459 -10.335981 -36.578453 32.644405 38.740585 105.778534
15 104.680779 11.144459 -10.335981 -34.826839 34.540043 41.908749 105.778534
[R_mid_hand02]
14 104.070427 2.443552 8.231699 69.973358 -43.581707 14.639651 104.424065
15 104.070427 2.443552 8.231699 68.824303 -46.622643 16.260368 104.424065
[R_mid_hand03]
14 106.028137 -11.221827 -5.996406 -170.161224 12.441350 -48.449898 106.788818
15 106.028137 -11.221827 -5.996406 -170.883774 12.973575 -51.735550 106.788818
[spine02]
14 129.756927 0.001550 0.000119 0.512113 -4.027288 -15.139157 129.756927
15 129.756927 0.001550 0.000119 0.502015 -4.028593 -14.991560 129.756927
[spine03]
14 78.613701 0.081624 -4.899033 1.986501 3.786321 17.849091 78.766243
15 78.613670 0.081635 -4.899035 1.981485 3.788047 17.771301 78.766212
[pelvis]
14 169.435242 0.051022 0.000000 -0.069750 -0.177965 16.893084 169.435257
15 169.435242 0.051022 0.000000 -0.069478 -0.178071 16.718098 169.435257
[null_rope03_connect]
14 -1.257226 -2.466202 137.391083 -143.838470 -83.724518 -133.602020 137.418976
15 -1.257226 -2.466202 137.391083 -149.110672 -83.859436 -122.426323 137.418976
[null_rope04_connect]
14 -1.259640 -2.480268 -137.844437 -143.838470 -83.724518 -133.602020 137.872513
15 -1.259640 -2.480268 -137.844437 -149.110672 -83.859436 -122.426323 137.872513
[Rope3_Seg01]
14 -0.000019 0.000263 -0.000082 35.274609 -22.146891 51.557766 0.000276
15 -0.000019 0.000286 -0.000076 36.618244 -23.819159 53.273300 0.000297
[Rope3_Seg02]
14 139.999924 -0.000119 0.000060 -15.660369 1.177985 -13.721627 139.999924
15 139.999924 -0.000119 0.000060 -18.753023 -2.922564 -19.854715 139.999924
[Rope3_Seg03]
14 139.999924 -0.000119 0.000119 -28.476509 -2.127299 -16.768042 139.999924
15 139.999924 -0.000119 0.000119 -51.532646 -3.882952 -18.157873 139.999924
[Rope3_Seg04]
14 139.999924 0.000119 0.000000 -22.527498 5.409066 -3.131088 139.999924
15 139.999924 0.000119 0.000000 -34.577461 5.651006 -2.717718 139.999924
[Rope3_Seg05]
14 139.999924 -0.000238 0.000060 20.701826 0.153955 29.893280 139.999924
15 139.999924 -0.000238 0.000060 36.206120 -8.048314 17.505310 139.999924
[Rope3_Seg06]
14 139.999893 -0.000119 -0.000060 5.722067 8.266294 24.010530 139.999893
15 139.999893 -0.000119 -0.000060 13.387257 3.928895 29.656425 139.999893
[Rope3_Seg07]
14 139.999771 0.000060 -0.000119 1.226616 4.578930 9.133429 139.999771
15 139.999771 0.000060 -0.000119 2.228209 5.451966 12.203760 139.999771
[Rope3_Seg08]
14 139.999985 -0.000060 0.000000 0.727661 2.471546 4.733127 139.999985
15 139.999985 -0.000060 0.000000 1.049198 3.128463 6.416204 139.999985
[Rope3_Seg09]
14 90.185997 -0.000179 -0.000060 89.793228 -1.359877 -0.847183 90.185997
15 90.185997 -0.000179 -0.000060 89.793228 -1.359877 -0.847183 90.185997
[R_rear_hand01]
14 103.366196 -6.073594 -10.757982 -166.165070 20.624775 -44.436913 104.101845
15 103.366196 -6.073594 -10.757982 -167.736008 21.565809 -48.800846 104.101845
[R_rear_hand02]
14 100.509819 12.039542 -7.992327 -29.134800 26.762835 41.953510 101.543350
15 100.509819 12.039542 -7.992327 -27.197788 28.737711 46.115414 101.543350
[R_rear_hand03]
14 101.539970 5.215704 5.435467 81.948608 -44.972134 9.574180 101.819031
15 101.539970 5.215704 5.435467 81.295578 -49.108295 10.466789 101.819031
[Rope4_Seg01]
14 0.000010 0.000038 -0.000114 -156.961334 -26.512093 156.374420 0.000121
15 0.000010 0.000038 -0.000114 129.638092 -29.878769 174.387192 0.000121
[Rope4_Seg02]
14 139.999985 0.000060 0.000119 18.779692 11.061948 16.632137 139.999985
15 139.999985 0.000060 0.000119 74.495705 -19.985960 21.213245 139.999985
[Rope4_Seg03]
14 139.999924 0.000000 -0.000238 -2.527384 8.826202 1.558113 139.999924
15 139.999924 0.000000 -0.000238 3.902977 9.262106 7.029188 139.999924
[Rope4_Seg04]
14 139.999985 0.000000 0.000119 8.303247 -0.771374 8.646821 139.999985
15 139.999985 0.000000 0.000119 6.735439 -0.388583 6.120076 139.999985
[Rope4_Seg05]
14 139.999802 -0.000060 -0.000119 25.886824 -9.872898 58.694324 139.999802
15 139.999802 -0.000060 -0.000119 28.198769 -13.032048 29.946548 139.999802
[Rope4_Seg06]
14 139.999924 0.000000 0.000060 3.878707 14.564345 41.160603 139.999924
15 139.999924 0.000000 0.000060 20.180210 6.801201 53.163586 139.999924
[Rope4_Seg07]
14 139.999802 0.000000 0.000000 -2.557913 3.473372 9.392804 139.999802
15 139.999802 0.000000 0.000000 0.325846 8.808245 18.142988 139.999802
[Rope4_Seg08]
14 139.999924 0.000000 0.000119 -2.141049 0.574758 1.811357 139.999924
15 139.999924 0.000000 0.000119 -2.089809 1.751754 3.690593 139.999924
[Rope4_Seg09]
14 90.185791 0.000060 0.000060 -135.617828 2.228885 0.850567 90.185791
15 90.185791 0.000060 0.000060 -135.617828 2.228885 0.850567 90.185791
[L_rear_hand01]
14 101.696655 -8.392275 -7.654577 -21.399742 -33.105404 122.636429 102.329041
15 101.696655 -8.392275 -7.654577 -18.919886 -34.466530 118.185951 102.329041
[L_rear_hand02]
14 102.726799 -1.568258 5.773216 78.723869 59.531788 166.383698 102.900848
15 102.726799 -1.568258 5.773216 77.226936 63.386848 164.679062 102.900848
[L_rear_hand03]
14 104.552910 9.721220 -10.420293 -172.062347 -23.429159 -119.922234 105.519653
15 104.552910 9.721220 -10.420293 -173.780411 -23.916815 -115.646576 105.519653
